<svg xmlns="http://www.w3.org/2000/svg" width="117.02" height="70.28" viewBox="0 0 117.02 70.28"><defs><style>.cls-1{fill:#b3b3b3;}.cls-2{fill:#333;}.cls-3{fill:#999;}.cls-4{fill:#1a1a1a;}.cls-5{fill:#fff;}</style></defs><g id="smilie"><path class="cls-1" d="M58.54,61.91v-52a2.53,2.53,0,0,0-1,1.56c-4.49.73-10.75,3.58-15,3.48a72,72,0,0,1-20-3.36L10.1,7.6C7.36,7.6-3.2,3.09,1,17.54l.76,1.35C8.23,30.36-4.45,49.51,5.77,57.14c6.83,5.11,6.46-.37,11.27-1.26a30.18,30.18,0,0,1,9.34-.28l27.79,3.48a4.12,4.12,0,0,0,1.86.3C57.21,61.19,57.57,61.65,58.54,61.91Z"/><path class="cls-2" d="M58.76,61.94v-14L31,48a33.58,33.58,0,0,0-9.24,1.35c-4.68,1.37-3.71,6.29-11.06,2.47-11-5.71-.48-24.54-8.19-34.17l-.91-1.13a23.9,23.9,0,0,1-1-2.49c-.63,1.45-.6,3.77.55,7.41l.76,1.23C8.45,33.16-4.23,50.63,6,57.59c6.83,4.65,6.46-.34,11.27-1.16a33.6,33.6,0,0,1,9.34-.25l27.79,3.18a4.69,4.69,0,0,0,1.86.27C57.43,61.28,57.79,61.7,58.76,61.94Z"/><path class="cls-1" d="M58.48,61.91v-52a2.53,2.53,0,0,1,1.05,1.56c4.49.73,10.75,3.58,15,3.48a72,72,0,0,0,20-3.36L106.91,7.6c2.75,0,13.31-4.51,9.15,9.94l-.76,1.35c-6.51,11.47,6.17,30.62-4,38.25-6.83,5.11-6.46-.37-11.27-1.26a30.18,30.18,0,0,0-9.34-.28L62.85,59.08a4.16,4.16,0,0,1-1.87.3C59.81,61.19,59.45,61.65,58.48,61.91Z"/><path class="cls-2" d="M58.26,61.94v-14L86,48a33.58,33.58,0,0,1,9.24,1.35c4.67,1.37,3.71,6.29,11.06,2.47,11-5.71.48-24.54,8.19-34.17l.91-1.13a26.36,26.36,0,0,0,1-2.49c.62,1.45.6,3.77-.55,7.41l-.76,1.23c-6.51,10.46,6.17,27.93-4,34.89-6.83,4.65-6.46-.34-11.27-1.16a33.6,33.6,0,0,0-9.34-.25L62.63,59.36a4.69,4.69,0,0,1-1.86.27C59.59,61.28,59.23,61.7,58.26,61.94Z"/><ellipse class="cls-3" cx="57.52" cy="35.14" rx="35.1" ry="35.2" transform="translate(-5.71 58.49) rotate(-51.69)"/><ellipse class="cls-4" cx="42" cy="25.82" rx="5.82" ry="5.42" transform="translate(-0.78 1.31) rotate(-1.77)"/><ellipse class="cls-5" cx="40.36" cy="23.23" rx="1.02" ry="0.95" transform="translate(-0.7 1.26) rotate(-1.77)"/><ellipse class="cls-5" cx="44.87" cy="24" rx="2.4" ry="2.24" transform="translate(-0.72 1.4) rotate(-1.77)"/><ellipse class="cls-4" cx="67.64" cy="25.82" rx="5.42" ry="5.82" transform="translate(39.74 92.63) rotate(-88.23)"/><ellipse class="cls-5" cx="71.27" cy="23.23" rx="0.95" ry="1.02" transform="translate(45.85 93.75) rotate(-88.23)"/><ellipse class="cls-5" cx="66.76" cy="23" rx="2.24" ry="2.4" transform="translate(41.71 89.02) rotate(-88.23)"/><polygon class="cls-2" points="75.32 8.61 57.14 16.19 56.23 13.66 74.42 6.08 75.32 8.61"/><polygon class="cls-2" points="60.37 17.77 59.02 18.33 56.33 10.8 57.68 10.24 60.37 17.77"/><polygon class="cls-2" points="63.15 15.73 62.12 16.42 59.4 11.24 60.43 10.54 63.15 15.73"/><polygon class="cls-2" points="65.43 18.03 64.95 18.14 62.76 8.59 63.23 8.48 65.43 18.03"/><polygon class="cls-2" points="72.21 13.28 71.78 13.51 68.8 6.7 69.23 6.46 72.21 13.28"/><polygon class="cls-2" points="69.59 13.45 68.65 13.66 67.19 7.29 68.13 7.08 69.59 13.45"/><polygon class="cls-2" points="69.04 16.7 67.91 17.17 64.73 8.27 65.86 7.8 69.04 16.7"/><polygon class="cls-2" points="73.3 11.38 72.48 11.94 69.9 7.01 70.72 6.46 73.3 11.38"/><polygon class="cls-2" points="76.97 10.49 75.95 11.19 72.82 5.22 73.84 4.53 76.97 10.49"/><rect class="cls-2" x="35.02" y="41.94" width="45" height="3"/><rect class="cls-2" x="35.02" y="49.94" width="45" height="3"/><rect class="cls-2" x="41.02" y="44.94" width="3" height="3"/><rect class="cls-2" x="45.02" y="46.94" width="3" height="3" transform="translate(94.95 1.92) rotate(90)"/><rect class="cls-2" x="34.02" y="45.94" width="5" height="3" transform="translate(83.95 10.92) rotate(90)"/><rect class="cls-2" x="59.02" y="44.94" width="3" height="3" transform="translate(106.95 -14.08) rotate(90)"/><rect class="cls-2" x="63.02" y="46.94" width="3" height="3" transform="translate(112.95 -16.08) rotate(90)"/><rect class="cls-2" x="67.02" y="44.94" width="3" height="3" transform="translate(114.95 -22.08) rotate(90)"/><rect class="cls-2" x="71.02" y="46.94" width="3" height="3" transform="translate(120.95 -24.08) rotate(90)"/><rect class="cls-2" x="55.02" y="47.94" width="3" height="2"/><rect class="cls-2" x="77.02" y="44.94" width="3" height="5"/></g></svg>